<?xml version="1.0" encoding="UTF-8"?>
<svg xmlns="http://www.w3.org/2000/svg" width="512" height="512" viewBox="0 0 512 512"><g><path d="M496,416H376V400H480a8,8,0,0,0,8-8V80a8,8,0,0,0-8-8H392V56h32a8,8,0,0,0,8-8V16a8,8,0,0,0-8-8H344a8,8,0,0,0-8,8V48a8,8,0,0,0,8,8h32V72H264V56h32a8,8,0,0,0,8-8V16a8,8,0,0,0-8-8H216a8,8,0,0,0-8,8V48a8,8,0,0,0,8,8h32V72H120V56h32a8,8,0,0,0,8-8V16a8,8,0,0,0-8-8H72a8,8,0,0,0-8,8V48a8,8,0,0,0,8,8h32V72H32a8,8,0,0,0-8,8V392a8,8,0,0,0,8,8H136v16H16a8,8,0,0,0-8,8v24a8,8,0,0,0,8,8H80v40a8,8,0,0,0,8,8h32a8,8,0,0,0,8-8V456H384v40a8,8,0,0,0,8,8h32a8,8,0,0,0,8-8V456h64a8,8,0,0,0,8-8V424A8,8,0,0,0,496,416ZM352,40V24h64V40ZM224,40V24h64V40ZM80,40V24h64V40ZM40,384V88H472V384Zm320,16v16H264V400Zm-112,0v16H152V400ZM112,488H96V456h16Zm304,0H400V456h16Zm72-48H24v-8H488Z"/><path d="M192,232a32,32,0,1,0-32-32A32.036,32.036,0,0,0,192,232Zm0-48a16,16,0,1,1-16,16A16.019,16.019,0,0,1,192,184Z"/><path d="M376,144H136a8,8,0,0,0-8,8V312a8,8,0,0,0,8,8H376a8,8,0,0,0,8-8V152A8,8,0,0,0,376,144ZM161.39,304,192,268.29,222.61,304Zm82.29,0-18.71-21.83L278,220.29,349.75,304ZM368,300.71l-83.93-97.92a8,8,0,0,0-12.14,0l-57.5,67.09-16.36-19.09a8,8,0,0,0-12.14,0L144,299.71V160H368Z"/></g></svg>
