<svg enable-background="new 0 0 256 256" height="512" viewBox="0 0 256 256" width="512" xmlns="http://www.w3.org/2000/svg"><g id="Layer_71"><g><g><g><ellipse cx="60.64" cy="178.36" fill="#fcdd86" rx="58.14" ry="58.14" transform="matrix(.707 -.707 .707 .707 -108.358 95.12)"/></g></g><g><g><circle cx="128" cy="60.64" fill="#9be5f9" r="58.14"/></g></g><g><g><circle cx="195.36" cy="178.36" fill="#b598f9" r="58.14"/></g></g><g><g><path d="m157.708 40.167c-7.531-6.616-19.07-5.776-26.158 1.313l-2.128 2.128c-.785.785-2.057.785-2.842 0l-2.128-2.128c-7.088-7.088-18.627-7.929-26.158-1.313-8.253 7.249-8.558 19.831-.915 27.474l26.124 26.125c2.484 2.484 6.512 2.484 8.996 0l26.124-26.125c7.642-7.643 7.337-20.225-.915-27.474z" fill="#fc657e"/></g></g><g><g><path d="m70.894 162.351c-1.732 0-3.377.367-4.864 1.027-3.826 1.699-8.293 1.699-12.119 0-1.486-.66-3.131-1.027-4.864-1.027-12.597 0-22.088 12.716-16.821 25.276l9.335 22.264c1.214 4.334 5.128 7.519 9.629 7.442 1.871-.032 3.616-.576 5.103-1.497 2.235-1.384 5.12-1.384 7.355 0 1.487.921 3.232 1.464 5.103 1.497 4.501.077 8.415-3.108 9.629-7.442l9.335-22.264c5.266-12.557-4.22-25.276-16.821-25.276z" fill="#fc657e"/></g></g><g><g><path d="m75.606 139.187c-3.645-1.507-7.947-1.23-11.468 1.132s-5.409 6.237-5.397 10.182c.003 1.026.635 1.969 1.584 2.361 3.645 1.507 7.947 1.23 11.468-1.132s5.409-6.237 5.397-10.182c-.004-1.027-.636-1.969-1.584-2.361z" fill="#b2e26d"/></g></g><g><g><path d="m170.849 154.571c-3.229 0-5.847 2.618-5.847 5.847v35.885c0 3.229 2.618 5.847 5.847 5.847s5.847-2.618 5.847-5.847v-35.885c0-3.23-2.618-5.847-5.847-5.847z" fill="#818182"/></g></g><g><g><path d="m159.155 159.293c-3.229 0-5.847 2.618-5.847 5.847v26.44c0 3.229 2.618 5.847 5.847 5.847 3.229 0 5.847-2.618 5.847-5.847v-26.44c0-3.229-2.617-5.847-5.847-5.847z" fill="#818182"/></g></g><g><g><path d="m219.871 154.571c-3.229 0-5.847 2.618-5.847 5.847v35.885c0 3.229 2.618 5.847 5.847 5.847s5.847-2.618 5.847-5.847v-35.885c-.001-3.23-2.618-5.847-5.847-5.847z" fill="#818182"/></g></g><g><g><path d="m231.564 159.293c-3.229 0-5.847 2.618-5.847 5.847v26.44c0 3.229 2.618 5.847 5.847 5.847s5.847-2.618 5.847-5.847v-26.44c0-3.229-2.618-5.847-5.847-5.847z" fill="#818182"/></g></g><g><g><path d="m176.696 172.513h37.328v11.693h-37.328z" fill="#edf4fc"/></g></g><g><g><path d="m215.013 80.2c-3.1-.6-5.6-3-6.2-6.1 0-.1-.3-.1-.3 0-.6 3.1-3.1 5.5-6.2 6.1-.1 0-.1.2 0 .3 3.1.6 5.6 3 6.2 6.1 0 .1.3.1.3 0 .6-3.1 3.1-5.5 6.2-6.1.1-.1.1-.3 0-.3z" fill="#fc657e"/></g></g><g><g><path d="m57.113 18.1h-2.4v-2.3c0-1.8-1.4-3.2-3.2-3.2-1.7 0-3.2 1.4-3.2 3.1v2.4h-2.3c-1.8 0-3.2 1.4-3.2 3.2-.1 1.7 1.3 3.2 3.2 3.2h2.3v2.3c0 1.8 1.4 3.2 3.2 3.2 1.7 0 3.2-1.4 3.2-3.1v-2.4h2.3c1.8 0 3.2-1.4 3.2-3.2 0-1.7-1.4-3.2-3.1-3.2z" fill="#70d6f9"/></g></g><g><g><circle cx="164.413" cy="252.6" fill="#87d147" r="3.4"/></g></g><g><g><path d="m80.413 0c-1.878 0-3.4 1.522-3.4 3.4s1.522 3.4 3.4 3.4 3.4-1.522 3.4-3.4-1.522-3.4-3.4-3.4z" fill="#f5c84c"/></g></g><g><g><path d="m146.013 235.2c-4.5-.8-8-4.3-8.9-8.7 0-.2-.4-.2-.4 0-.9 4.4-4.4 7.9-8.9 8.7-.2 0-.2.3 0 .4 4.5.8 8 4.3 8.9 8.7 0 .2.4.2.4 0 .9-4.4 4.4-7.9 8.9-8.7.2-.1.2-.4 0-.4z" fill="#f5c84c"/></g></g><g><g><g><path d="m60.64 117.72c-33.437 0-60.64 27.203-60.64 60.639 0 33.438 27.203 60.641 60.64 60.641 33.438 0 60.641-27.203 60.641-60.641 0-33.436-27.203-60.639-60.641-60.639zm0 116.28c-30.68 0-55.64-24.96-55.64-55.641 0-30.68 24.96-55.64 55.64-55.64s55.641 24.96 55.641 55.64c0 30.681-24.961 55.641-55.641 55.641z"/></g></g></g><g><g><g><path d="m128 0c-33.437 0-60.64 27.203-60.64 60.641 0 33.437 27.203 60.64 60.64 60.64s60.64-27.203 60.64-60.64c0-33.438-27.203-60.641-60.64-60.641zm0 116.28c-30.68 0-55.64-24.96-55.64-55.64s24.96-55.64 55.64-55.64 55.64 24.96 55.64 55.641c0 30.679-24.96 55.639-55.64 55.639z"/></g></g></g><g><g><path d="m167.5 63.496h-33c-.878 0-1.692.461-2.144 1.214l-3.382 5.637-7.146-18.262c-.346-.883-1.161-1.494-2.105-1.579-.944-.09-1.855.372-2.352 1.18l-7.268 11.811h-21.603c-1.381 0-2.5 1.119-2.5 2.5s1.119 2.5 2.5 2.5h23c.868 0 1.674-.45 2.129-1.189l5.371-8.729 7.172 18.328c.347.888 1.169 1.5 2.119 1.58.07.006.14.009.209.009.873 0 1.689-.457 2.143-1.214l5.272-8.786h31.585c1.381 0 2.5-1.119 2.5-2.5s-1.119-2.5-2.5-2.5z"/></g></g><g><g><path d="m51.959 144.884c-1.169-.73-2.704-.376-3.437.79-.734 1.166-.383 2.708.78 3.445.08.051 7.971 5.157 7.971 13.878 0 1.381 1.119 2.5 2.5 2.5s2.5-1.119 2.5-2.5c0-11.534-9.893-17.85-10.314-18.113z"/></g></g><g><g><g><path d="m195.36 117.72c-33.438 0-60.641 27.203-60.641 60.64 0 33.438 27.203 60.641 60.641 60.641 33.437 0 60.64-27.203 60.64-60.641 0-33.437-27.203-60.64-60.64-60.64zm0 116.28c-30.68 0-55.641-24.96-55.641-55.641 0-30.68 24.96-55.64 55.641-55.64s55.64 24.961 55.64 55.64c0 30.681-24.96 55.641-55.64 55.641z"/></g></g></g><g><g><g><path d="m166.624 53.64c-.193-5.953-2.773-11.404-7.266-15.351-8.404-7.383-21.395-6.758-29.576 1.423l-1.782 1.781-1.781-1.781c-8.181-8.181-21.172-8.808-29.576-1.423-4.493 3.946-7.073 9.397-7.266 15.351-.189 5.87 2.083 11.618 6.234 15.769l26.124 26.124c1.728 1.728 3.997 2.592 6.266 2.592s4.538-.864 6.266-2.592l26.124-26.124c4.15-4.151 6.422-9.899 6.233-15.769zm-9.77 12.233-26.124 26.124c-1.459 1.459-4.002 1.459-5.461 0l-26.123-26.124c-3.224-3.225-4.919-7.512-4.771-12.072.147-4.556 2.125-8.73 5.568-11.756 2.983-2.62 6.731-3.911 10.525-3.911 4.383 0 8.827 1.725 12.216 5.113l2.127 2.128c.852.852 1.984 1.321 3.189 1.321s2.337-.47 3.188-1.321l2.128-2.128c6.322-6.323 16.311-6.851 22.741-1.202 3.443 3.025 5.421 7.2 5.568 11.756.148 4.56-1.546 8.847-4.771 12.072z"/></g></g></g><g><g><g><path d="m88.279 169.181c-3.885-5.842-10.384-9.329-17.385-9.329-2.045 0-4.023.418-5.878 1.241-3.159 1.404-6.931 1.404-10.089 0-1.855-.823-3.833-1.241-5.878-1.241-7.001 0-13.5 3.487-17.385 9.329-3.852 5.791-4.487 12.867-1.742 19.413l9.278 22.128c1.604 5.467 6.53 9.175 12.034 9.111 2.258-.039 4.462-.687 6.376-1.871 1.435-.889 3.289-.888 4.723-.001 1.912 1.185 4.116 1.832 6.376 1.872.068.001.136.001.204.001 5.422 0 10.247-3.713 11.83-9.112l9.279-22.128c2.744-6.546 2.109-13.622-1.743-19.413zm-2.869 17.479-9.335 22.264c-.04.096-.074.193-.102.293-.942 3.363-3.907 5.665-7.177 5.616-1.359-.023-2.684-.412-3.831-1.123-1.517-.938-3.254-1.408-4.993-1.408-1.738 0-3.477.47-4.994 1.409-1.148.711-2.473 1.099-3.83 1.122-3.274.104-6.237-2.252-7.179-5.616-.028-.1-.062-.197-.102-.293l-9.335-22.264c-2.086-4.976-1.615-10.337 1.294-14.711 2.956-4.444 7.898-7.098 13.222-7.098 1.342 0 2.637.272 3.849.812 4.495 1.996 9.653 1.996 14.148 0 1.212-.539 2.507-.812 3.849-.812 5.324 0 10.266 2.653 13.222 7.098 2.909 4.374 3.381 9.736 1.294 14.711z"/></g></g></g><g><g><g><path d="m76.561 136.877c-4.563-1.887-9.728-1.377-13.816 1.366-4.088 2.742-6.52 7.327-6.505 12.267.007 2.05 1.235 3.881 3.128 4.662 1.821.753 3.737 1.124 5.644 1.124 2.87 0 5.716-.842 8.173-2.49 4.087-2.742 6.519-7.327 6.504-12.266 0 0 0 0 0-.001-.006-2.05-1.235-3.881-3.128-4.662zm-6.161 12.776c-2.696 1.809-6.105 2.146-9.16.84-.01-3.262 1.594-6.289 4.291-8.098 1.619-1.086 3.495-1.642 5.388-1.642 1.26 0 2.528.246 3.733.744.014.006.038.039.038.059.009 3.262-1.595 6.289-4.29 8.097z"/></g></g></g><g><g><g><path d="m170.849 152.07c-4.603 0-8.347 3.744-8.347 8.347v35.885c0 4.603 3.745 8.347 8.347 8.347s8.347-3.744 8.347-8.347v-35.885c0-4.603-3.744-8.347-8.347-8.347zm3.347 44.232c0 1.846-1.501 3.347-3.347 3.347s-3.347-1.501-3.347-3.347v-35.885c0-1.846 1.501-3.347 3.347-3.347 1.845 0 3.347 1.501 3.347 3.347z"/></g></g></g><g><g><g><path d="m159.155 156.793c-4.603 0-8.347 3.744-8.347 8.347v26.44c0 4.603 3.744 8.347 8.347 8.347s8.347-3.744 8.347-8.347v-26.44c0-4.603-3.744-8.347-8.347-8.347zm3.347 34.787c0 1.846-1.501 3.347-3.347 3.347s-3.347-1.501-3.347-3.347v-26.44c0-1.846 1.501-3.347 3.347-3.347s3.347 1.501 3.347 3.347z"/></g></g></g><g><g><g><path d="m219.871 152.07c-4.603 0-8.347 3.744-8.347 8.347v35.885c0 4.603 3.744 8.347 8.347 8.347s8.347-3.744 8.347-8.347v-35.885c-.001-4.603-3.745-8.347-8.347-8.347zm3.346 44.232c0 1.846-1.501 3.347-3.347 3.347s-3.347-1.501-3.347-3.347v-35.885c0-1.846 1.501-3.347 3.347-3.347s3.347 1.501 3.347 3.347z"/></g></g></g><g><g><g><path d="m231.564 156.793c-4.603 0-8.347 3.744-8.347 8.347v26.44c0 4.603 3.744 8.347 8.347 8.347s8.347-3.744 8.347-8.347v-26.44c0-4.603-3.744-8.347-8.347-8.347zm3.347 34.787c0 1.846-1.501 3.347-3.347 3.347s-3.347-1.501-3.347-3.347v-26.44c0-1.846 1.501-3.347 3.347-3.347s3.347 1.501 3.347 3.347z"/></g></g></g><g><g><g><path d="m214.024 170.013h-37.328c-1.381 0-2.5 1.119-2.5 2.5v11.693c0 1.381 1.119 2.5 2.5 2.5h37.328c1.381 0 2.5-1.119 2.5-2.5v-11.693c0-1.381-1.119-2.5-2.5-2.5zm-2.5 11.693h-32.328v-6.693h32.328z"/></g></g></g></g></g></svg>