<svg id="Capa_1" enable-background="new 0 0 512 512" height="512" viewBox="0 0 512 512" width="512" xmlns="http://www.w3.org/2000/svg"><g><path d="m317.386 459.502-118.158-11.502 33.503-83.521 51.515 12.41z" fill="#b4d0d5"/><path d="m484.044 35.556h-456.088c-15.44 0-27.956 12.516-27.956 27.956v256.488l31.085 28.444 480.915-28.444v-256.488c0-15.44-12.516-27.956-27.956-27.956z" fill="#617881"/><path d="m99.562 64v256h383.994v-256z" fill="#f1f4f6"/><path d="m28.445 64h-.001v256h71.118v-256z" fill="#dd636e"/><path d="m28.444 299.396v20.604l92.061 21.33-20.943-41.934z" fill="#da4a54"/><path d="m442.348 64v144.945c0 49.955-40.497 90.452-90.452 90.452h-252.334v53.239l383.994-32.636v-256z" fill="#dfeaef"/><g><path d="m71.119 99.96h-14.222c-4.142 0-7.5-3.357-7.5-7.5s3.358-7.5 7.5-7.5h14.222c4.142 0 7.5 3.357 7.5 7.5s-3.358 7.5-7.5 7.5z" fill="#f1f4f6"/></g><g><path d="m71.119 199.512h-14.222c-4.142 0-7.5-3.357-7.5-7.5s3.358-7.5 7.5-7.5h14.222c4.142 0 7.5 3.357 7.5 7.5s-3.358 7.5-7.5 7.5z" fill="#f1f4f6"/></g><g><path d="m71.119 299.063h-14.222c-4.142 0-7.5-3.357-7.5-7.5s3.358-7.5 7.5-7.5h14.222c4.142 0 7.5 3.357 7.5 7.5s-3.358 7.5-7.5 7.5z" fill="#f1f4f6"/></g><path d="m341.33 99.96h-42.665c-4.142 0-7.5-3.357-7.5-7.5s3.358-7.5 7.5-7.5h42.665c4.142 0 7.5 3.357 7.5 7.5s-3.358 7.5-7.5 7.5zm-63.608-7.5c0-4.143-3.358-7.5-7.5-7.5h-142.217c-4.142 0-7.5 3.357-7.5 7.5s3.358 7.5 7.5 7.5h142.216c4.143 0 7.501-3.358 7.501-7.5zm-71.109 28.443c0-4.143-3.358-7.5-7.5-7.5h-71.108c-4.142 0-7.5 3.357-7.5 7.5s3.358 7.5 7.5 7.5h71.108c4.142 0 7.5-3.357 7.5-7.5zm21.878-7.575c-4.267 0-7.726 3.459-7.726 7.726s3.459 7.726 7.726 7.726 7.726-3.459 7.726-7.726-3.459-7.726-7.726-7.726zm77.674 121.349c0-4.143-3.358-7.5-7.5-7.5h-28.443c-4.142 0-7.5 3.357-7.5 7.5s3.358 7.5 7.5 7.5h28.443c4.142 0 7.5-3.358 7.5-7.5zm-56.887 0c0-4.143-3.358-7.5-7.5-7.5h-113.773c-4.142 0-7.5 3.357-7.5 7.5s3.358 7.5 7.5 7.5h113.773c4.142 0 7.5-3.358 7.5-7.5zm-42.665 28.443c0-4.143-3.358-7.5-7.5-7.5h-71.108c-4.142 0-7.5 3.357-7.5 7.5s3.358 7.5 7.5 7.5h71.108c4.142 0 7.5-3.357 7.5-7.5zm21.878-7.576c-4.267 0-7.726 3.459-7.726 7.726s3.459 7.726 7.726 7.726 7.726-3.459 7.726-7.726-3.459-7.726-7.726-7.726zm120.339-77.754c0-4.143-3.358-7.5-7.5-7.5h-142.217c-4.142 0-7.5 3.357-7.5 7.5s3.358 7.5 7.5 7.5h142.217c4.142 0 7.5-3.357 7.5-7.5zm-170.66 0c0-4.143-3.358-7.5-7.5-7.5h-42.665c-4.142 0-7.5 3.357-7.5 7.5s3.358 7.5 7.5 7.5h42.665c4.142 0 7.5-3.357 7.5-7.5zm28.443 28.443c0-4.143-3.358-7.5-7.5-7.5h-71.108c-4.142 0-7.5 3.357-7.5 7.5s3.358 7.5 7.5 7.5h71.108c4.142 0 7.5-3.357 7.5-7.5zm21.878-7.575c-4.267 0-7.726 3.459-7.726 7.726s3.459 7.726 7.726 7.726 7.726-3.459 7.726-7.726-3.459-7.726-7.726-7.726zm91.896-49.311c0-4.143-3.358-7.5-7.5-7.5h-184.882c-4.142 0-7.5 3.357-7.5 7.5s3.358 7.5 7.5 7.5h184.881c4.143 0 7.501-3.358 7.501-7.5zm56.886 0c0-4.143-3.358-7.5-7.5-7.5h-28.443c-4.142 0-7.5 3.357-7.5 7.5s3.358 7.5 7.5 7.5h28.443c4.142 0 7.5-3.358 7.5-7.5z" fill="#617881"/><path d="m359.305 299.063h-14.222c-4.142 0-7.5-3.357-7.5-7.5v-19.446l-14.267-14.268c-2.391-2.39-3.708-5.569-3.708-8.951s1.316-6.561 3.708-8.952l14.267-14.268v-19.445c0-4.143 3.358-7.5 7.5-7.5h14.222c4.142 0 7.5 3.357 7.5 7.5s-3.358 7.5-7.5 7.5h-6.722v15.052c0 1.989-.79 3.896-2.197 5.303l-14.809 14.81 14.809 14.811c1.407 1.406 2.197 3.313 2.197 5.303v15.053h6.722c4.142 0 7.5 3.357 7.5 7.5s-3.358 7.498-7.5 7.498zm85.323-7.5v-19.446l17.916-17.915c2.929-2.93 2.929-7.678 0-10.606l-17.916-17.917v-19.445c0-4.143-3.358-7.5-7.5-7.5h-14.222c-4.142 0-7.5 3.357-7.5 7.5s3.358 7.5 7.5 7.5h6.722v15.052c0 1.989.79 3.896 2.197 5.303l14.809 14.811-14.809 14.809c-1.407 1.407-2.197 3.314-2.197 5.304v15.053h-6.722c-4.142 0-7.5 3.357-7.5 7.5s3.358 7.5 7.5 7.5h14.222c4.142-.003 7.5-3.36 7.5-7.503zm-53.357-12.402 14.222-56.887c1.005-4.019-1.438-8.091-5.457-9.096-4.013-.997-8.09 1.439-9.095 5.457l-14.222 56.887c-1.005 4.019 1.438 8.091 5.457 9.096.61.152 1.222.226 1.825.226 3.36 0 6.418-2.276 7.27-5.683z" fill="#4073c8"/><path d="m444.628 225.679v-19.445c0-2.113-.874-4.022-2.28-5.385v8.096c0 10.674-1.849 20.916-5.244 30.423l9.53 9.531-14.809 14.809c-1.407 1.407-2.197 3.314-2.197 5.304v15.053h-6.722c-4.142 0-7.5 3.357-7.5 7.5s3.358 7.5 7.5 7.5h14.222c4.142 0 7.5-3.357 7.5-7.5v-19.446l17.916-17.915c2.929-2.93 2.929-7.678 0-10.606z" fill="#3b66c1"/><path d="m0 320v28.933c0 15.44 12.516 27.956 27.956 27.956h456.087c15.44 0 27.956-12.516 27.956-27.956v-28.933z" fill="#d0e2e7"/><path d="m340.255 476.444h-168.51c-.596 0-1.078-.483-1.078-1.078v-12.115c0-8.423 6.828-15.251 15.251-15.251h140.166c8.423 0 15.251 6.828 15.251 15.251v12.115c-.002.596-.485 1.078-1.08 1.078z" fill="#d0e2e7"/><g><path d="m284.444 355.944h-56.889c-4.142 0-7.5-3.357-7.5-7.5s3.358-7.5 7.5-7.5h56.889c4.142 0 7.5 3.357 7.5 7.5s-3.358 7.5-7.5 7.5z" fill="#b4d0d5"/></g></g></svg>